HIERARCHY
ROOT SpineBase
{
  OFFSET 0.000000 0.000000 0.000000
  CHANNELS 6 Xposition Yposition Zposition Zrotation Xrotation Yrotation
  JOINT SpineMid
  {
    OFFSET -0.000000 29.239544 0.000000
    CHANNELS 3 Zrotation Xrotation Yrotation
    JOINT SpineShoulder
    {
      OFFSET 0.091671 21.806806 -0.576148
      CHANNELS 3 Zrotation Xrotation Yrotation
      JOINT Neck
      {
        OFFSET 0.078809 7.218105 -0.462616
        CHANNELS 3 Zrotation Xrotation Yrotation
        JOINT Head
        {
          OFFSET -0.522030 11.280270 6.477314
          CHANNELS 3 Zrotation Xrotation Yrotation
          End Site
          {
            OFFSET 0 0 0
          }
        }
      }
      JOINT ShoulderLeft
      {
        OFFSET -8.640881 -5.304343 -9.048257
        CHANNELS 3 Zrotation Xrotation Yrotation
        JOINT ElbowLeft
        {
          OFFSET -6.078433 -22.096101 -5.694519
          CHANNELS 3 Zrotation Xrotation Yrotation
          JOINT WristLeft
          {
            OFFSET -2.074008 -20.806809 -1.891838
            CHANNELS 3 Zrotation Xrotation Yrotation
            JOINT HandLeft
            {
              OFFSET -0.633904 -3.428278 0.428398
              CHANNELS 3 Zrotation Xrotation Yrotation
              JOINT HandTipLeft
              {
                OFFSET -0.954400 -7.185801 0.374257
                CHANNELS 3 Zrotation Xrotation Yrotation
                End Site
                {
                  OFFSET 0 0 0
                }
              }
              JOINT ThumbLeft
              {
                OFFSET -2.139535 1.933471 -3.624879
                CHANNELS 3 Zrotation Xrotation Yrotation
                End Site
                {
                  OFFSET 0 0 0
                }
              }
            }
          }
        }
      }
      JOINT ShoulderRight
      {
        OFFSET 9.836462 -1.709233 3.349093
        CHANNELS 3 Zrotation Xrotation Yrotation
        JOINT ElbowRight
        {
          OFFSET -0.449052 -23.093984 -5.043570
          CHANNELS 3 Zrotation Xrotation Yrotation
          JOINT WristRight
          {
            OFFSET -0.659557 -21.950630 3.929371
            CHANNELS 3 Zrotation Xrotation Yrotation
            JOINT HandRight
            {
              OFFSET 2.156593 -5.047759 -0.820124
              CHANNELS 3 Zrotation Xrotation Yrotation
              JOINT HandTipRight
              {
                OFFSET -0.259029 -5.683334 -0.178078
                CHANNELS 3 Zrotation Xrotation Yrotation
                End Site
                {
                  OFFSET 0 0 0
                }
              }
              JOINT ThumbRight
              {
                OFFSET 0.540525 -0.869739 -0.499708
                CHANNELS 3 Zrotation Xrotation Yrotation
                End Site
                {
                  OFFSET 0 0 0
                }
              }
            }
          }
        }
      }
    }
  }
  JOINT HipLeft
  {
    OFFSET -4.143039 1.899800 -6.211936
    CHANNELS 3 Zrotation Xrotation Yrotation
    JOINT KneeLeft
    {
      OFFSET 7.933310 -26.965182 4.032416
      CHANNELS 3 Zrotation Xrotation Yrotation
      JOINT AnkleLeft
      {
        OFFSET -4.528900 -17.411338 -15.037867
        CHANNELS 3 Zrotation Xrotation Yrotation
        JOINT FootLeft
        {
          OFFSET 4.558389 -6.690800 -4.684992
          CHANNELS 3 Zrotation Xrotation Yrotation
          End Site
          {
            OFFSET 0 0 0
          }
        }
      }
    }
  }
  JOINT HipRight
  {
    OFFSET 4.755281 0.314984 -0.381214
    CHANNELS 3 Zrotation Xrotation Yrotation
    JOINT KneeRight
    {
      OFFSET -3.005073 -21.251500 -7.691117
      CHANNELS 3 Zrotation Xrotation Yrotation
      JOINT AnkleRight
      {
        OFFSET 1.336476 -28.369123 -5.001820
        CHANNELS 3 Zrotation Xrotation Yrotation
        JOINT FootRight
        {
          OFFSET 3.684436 -2.016804 -10.647781
          CHANNELS 3 Zrotation Xrotation Yrotation
          End Site
          {
            OFFSET 0 0 0
          }
        }
      }
    }
  }
}
MOTION
Frames: 14
Frame Time: 0.033333
-36.899884 57.180559 301.020505 -1.969106 -0.118005 -25.526225 0.308399 -0.139273 25.475233 0.072383 -0.244007 -0.059904 0.546397 -0.704474 0.684474 0.000000 0.000000 0.000000 1.371592 -0.526823 0.488298 -6.294713 7.679547 0.063345 3.313930 -13.935781 0.784498 1.620214 0.740515 -0.249847 0.000000 0.000000 0.000000 0.000000 0.000000 0.000000 1.964963 -0.571666 0.052308 1.028244 4.067103 0.131508 -23.040903 8.268961 9.834718 25.203055 -25.962375 -4.371096 0.000000 0.000000 0.000000 0.000000 0.000000 0.000000 -16.816397 9.280145 30.023354 30.425666 -55.152403 10.330148 -26.546077 8.772715 -2.181792 0.000000 0.000000 0.000000 12.749815 -5.667116 24.876615 -1.633696 -11.220554 -0.214375 -7.537247 -18.468249 56.000091 0.000000 0.000000 0.000000
-36.954771 57.203897 300.993753 -1.889468 -0.110111 -25.331504 0.332965 -0.141804 25.283439 0.110320 -0.265430 -0.053504 0.219400 -0.431035 0.797839 0.000000 0.000000 0.000000 1.399470 -0.589926 0.460701 -6.640213 8.090578 0.110412 3.526873 -14.303452 0.829351 2.548359 -0.312006 -0.142117 0.000000 0.000000 0.000000 0.000000 0.000000 0.000000 2.647028 -2.272112 -0.086925 0.330032 5.518912 0.289660 -21.944041 9.022832 9.874982 23.970482 -25.439773 -4.455577 0.000000 0.000000 0.000000 0.000000 0.000000 0.000000 -16.783110 9.301026 29.817688 30.555778 -55.290481 10.398251 -26.407601 11.007072 -0.308144 0.000000 0.000000 0.000000 12.656719 -5.730416 24.688729 -1.025606 -11.570429 -0.316374 -8.052579 -19.042953 55.344478 0.000000 0.000000 0.000000
-37.014359 57.243879 300.964655 -1.836264 -0.122606 -25.251210 0.340018 -0.172319 25.204137 0.129078 -0.299765 -0.050271 0.021294 -0.108254 0.884199 0.000000 0.000000 0.000000 1.458608 -0.570032 0.438626 -6.866495 8.324073 0.145019 4.035161 -13.754184 0.856245 2.705964 -1.602685 0.051456 0.000000 0.000000 0.000000 0.000000 0.000000 0.000000 2.746732 -2.711696 -0.112543 0.248788 5.283964 0.353729 -19.914194 11.422786 10.516921 24.227478 -24.826897 -4.032418 0.000000 0.000000 0.000000 0.000000 0.000000 0.000000 -16.767939 9.317264 29.733093 30.694099 -55.388624 10.436122 -25.474116 10.647442 -2.175524 0.000000 0.000000 0.000000 12.682863 -5.729136 24.579938 -1.570318 -10.895471 -0.194982 -6.641889 -19.935800 60.081969 0.000000 0.000000 0.000000
-37.071838 57.261843 300.939979 -1.804523 -0.142088 -25.253960 0.337902 -0.192790 25.207163 0.140114 -0.321069 -0.048557 -0.122317 0.143253 0.958104 0.000000 0.000000 0.000000 1.569320 -0.527097 0.402565 -7.079873 8.402349 0.190075 3.428772 -13.330588 0.583802 2.662080 -2.589291 0.249271 0.000000 0.000000 0.000000 0.000000 0.000000 0.000000 2.268087 -1.973952 -0.044530 0.749669 3.398177 0.326160 -17.708206 14.490863 11.237589 24.411350 -22.379290 -3.885436 0.000000 0.000000 0.000000 0.000000 0.000000 0.000000 -16.761026 9.305425 29.724777 30.850850 -55.370704 10.390729 -25.633534 7.799897 -4.810969 0.000000 0.000000 0.000000 12.781508 -5.699917 24.539635 -2.025521 -10.665211 -0.076495 -7.833153 -17.047403 55.558163 0.000000 0.000000 0.000000
-37.119717 57.280740 300.913822 -1.763655 -0.160240 -25.385145 0.343330 -0.199938 25.339309 0.163593 -0.331129 -0.045248 -0.517227 0.353876 1.157300 0.000000 0.000000 0.000000 1.573908 -0.483062 0.377737 -7.121919 8.418893 0.203697 2.966128 -12.203180 0.286913 2.475654 -4.252878 0.549531 0.000000 0.000000 0.000000 0.000000 0.000000 0.000000 1.865827 -1.353712 0.006957 1.168057 1.561695 0.334977 -14.862457 16.073664 10.686513 23.304615 -18.630178 -3.885081 0.000000 0.000000 0.000000 0.000000 0.000000 0.000000 -16.786197 9.196896 29.811544 31.070527 -55.338147 10.377316 -27.128550 2.141018 -8.888775 0.000000 0.000000 0.000000 12.933099 -5.670090 24.623893 -2.281696 -10.568415 0.009098 -8.858032 -19.057823 47.444510 0.000000 0.000000 0.000000
-37.154838 57.307696 300.894325 -1.707503 -0.192722 -25.516910 0.378684 -0.229391 25.472549 0.207778 -0.370835 -0.039087 -0.982156 0.717757 1.370225 0.000000 0.000000 0.000000 1.512636 -0.337177 0.344051 -7.072859 8.381524 0.205213 1.535458 -11.960063 -0.124780 5.138821 -5.763336 0.935753 0.000000 0.000000 0.000000 0.000000 0.000000 0.000000 1.503576 -0.782660 0.039380 1.448972 0.132148 0.347108 -11.849339 18.789898 10.654687 19.855140 -15.202377 -4.876417 0.000000 0.000000 0.000000 0.000000 0.000000 0.000000 -16.848370 9.086888 29.898662 31.287939 -55.414799 10.476665 -33.374141 -9.459364 -15.364760 0.000000 0.000000 0.000000 12.978096 -5.594324 24.712212 -2.680626 -10.665188 0.115915 -9.956039 -17.160293 40.425393 0.000000 0.000000 0.000000
-37.161978 57.348796 300.884645 -1.668315 -0.205879 -25.730830 0.351215 -0.242023 25.686735 0.187778 -0.367930 -0.039955 -1.018472 0.805258 1.404398 0.000000 0.000000 0.000000 1.529630 -0.303687 0.336873 -6.893966 8.309440 0.180061 0.415888 -11.419861 -0.453688 6.701301 -5.948532 1.128839 0.000000 0.000000 0.000000 0.000000 0.000000 0.000000 1.523308 -0.535130 0.032988 1.474504 -0.442028 0.380488 -8.684828 19.637383 9.718976 16.129319 -5.077072 -6.575774 0.000000 0.000000 0.000000 0.000000 0.000000 0.000000 -16.994636 8.901784 30.050222 31.402449 -55.221286 10.428012 -37.446945 -14.397156 -16.919759 0.000000 0.000000 0.000000 13.058334 -5.543465 24.895706 -3.160183 -10.745745 0.228121 -10.620094 -14.990665 34.170427 0.000000 0.000000 0.000000
-37.189767 57.305935 300.875138 -1.666667 -0.226434 -25.770280 0.310586 -0.258931 25.724890 0.156975 -0.356930 -0.043503 -0.797602 0.820037 1.321791 0.000000 0.000000 0.000000 1.587107 -0.288167 0.342698 -6.723625 8.246394 0.152780 -0.570407 -11.236697 -0.700652 8.201961 -6.840585 1.387599 0.000000 0.000000 0.000000 0.000000 0.000000 0.000000 1.499432 0.004140 0.047324 1.555846 -1.309272 0.395808 -8.630586 18.886099 9.216846 11.614984 -1.063023 -7.365735 0.000000 0.000000 0.000000 0.000000 0.000000 0.000000 -17.018418 8.872888 30.076389 31.175339 -54.865695 10.185324 -29.444768 -2.617218 -10.911492 0.000000 0.000000 0.000000 13.148021 -5.550365 24.920492 -3.224251 -11.135718 0.248971 -10.797960 -9.296905 32.340038 0.000000 0.000000 0.000000
-37.242263 57.250993 300.864000 -1.682573 -0.195947 -25.828102 0.275158 -0.239153 25.782207 0.117833 -0.284479 -0.047798 -0.415578 0.649995 1.143843 0.000000 0.000000 0.000000 1.680114 -0.451421 0.354840 -6.501507 8.282642 0.110971 -1.460449 -12.162172 -0.768763 9.939256 -7.282642 1.466494 0.000000 0.000000 0.000000 0.000000 0.000000 0.000000 1.420302 0.817696 0.072012 1.616196 -2.106073 0.381237 -9.994451 17.454568 9.134463 9.875373 3.759540 -7.693005 0.000000 0.000000 0.000000 0.000000 0.000000 0.000000 -16.931328 8.833697 30.118202 31.205765 -54.780632 10.078786 -22.433648 12.556759 -4.364536 0.000000 0.000000 0.000000 13.179380 -5.539831 24.975190 -4.146810 -10.738178 0.427128 -10.154918 -8.670506 29.659994 0.000000 0.000000 0.000000
-37.332467 57.221535 300.825097 -1.770491 -0.114286 -25.964081 0.257727 -0.220230 25.916462 0.050110 -0.226744 -0.056348 0.302434 0.292729 0.817342 0.000000 0.000000 0.000000 1.869451 -0.676481 0.379793 -5.946186 8.557112 -0.003921 -3.830900 -11.770951 -1.329988 10.004865 -8.104082 1.676321 0.000000 0.000000 0.000000 0.000000 0.000000 0.000000 1.568346 -0.201913 0.105876 1.730938 -1.253737 0.354653 -9.441826 20.922773 10.579219 7.679899 -0.751596 -8.882372 0.000000 0.000000 0.000000 0.000000 0.000000 0.000000 -16.721526 8.878263 30.289329 31.169729 -54.945773 10.070203 -16.640324 31.451062 2.646207 0.000000 0.000000 0.000000 13.365222 -5.557299 25.108188 -4.576087 -10.263801 0.522248 -9.782982 -11.622597 30.740763 0.000000 0.000000 0.000000
-37.430544 57.347607 300.694295 -1.922245 0.040485 -26.013929 0.256707 -0.174910 25.964777 -0.010881 -0.250792 -0.066877 1.127875 0.066201 0.459950 0.000000 0.000000 0.000000 2.119093 -0.941942 0.409003 -5.875447 8.628231 -0.026565 -4.616826 -11.031761 -1.582743 9.066821 -8.676676 1.758826 0.000000 0.000000 0.000000 0.000000 0.000000 0.000000 2.485190 -2.288996 0.012550 6.027086 -2.321284 1.441815 -9.950446 27.592743 9.915307 12.212967 -6.664576 -7.968505 0.000000 0.000000 0.000000 0.000000 0.000000 0.000000 -15.878591 9.446688 30.588403 30.027316 -55.345435 9.719851 -10.004752 51.303697 6.518060 0.000000 0.000000 0.000000 13.563400 -5.850173 25.271784 -4.674357 -9.808194 0.480221 -9.002001 -15.271506 35.755327 0.000000 0.000000 0.000000
-37.474048 57.357922 300.736159 -1.947138 -0.006691 -26.448679 0.219014 -0.120485 26.398508 -0.058193 -0.316408 -0.071843 1.607060 -0.431060 0.208612 0.000000 0.000000 0.000000 2.222867 -1.005608 0.438863 -6.981222 9.099671 0.139257 -3.115868 -10.653888 -1.571997 6.555792 -9.513292 1.690667 0.000000 0.000000 0.000000 0.000000 0.000000 0.000000 3.586135 -4.498631 -0.114212 3.484591 1.389433 1.100524 -11.485663 26.835951 11.715041 9.726113 -13.413031 -8.658531 0.000000 0.000000 0.000000 0.000000 0.000000 0.000000 -15.583415 9.007627 30.798471 29.557186 -54.725420 9.491333 -3.218416 64.663696 6.036049 0.000000 0.000000 0.000000 13.640568 -5.833480 25.732162 -4.750578 -9.277385 0.473112 -7.733466 -16.975453 43.240695 0.000000 0.000000 0.000000
-37.555758 57.207373 300.947201 -1.999576 -0.289927 -28.038817 0.195854 -0.042243 27.984165 -0.079658 -0.413903 -0.073955 1.896809 -0.845233 0.039736 0.000000 0.000000 0.000000 2.264426 -0.835399 0.475457 -8.505584 9.837903 0.381423 -1.638268 -8.353403 -1.914396 2.799949 -11.312276 1.624870 0.000000 0.000000 0.000000 0.000000 0.000000 0.000000 3.799837 -4.453028 -0.147820 -3.518511 6.260899 0.240313 -9.459411 24.469739 15.494482 2.058392 -19.064016 -12.955775 0.000000 0.000000 0.000000 0.000000 0.000000 0.000000 -15.923325 7.075048 31.521266 30.369704 -52.152972 8.876603 1.974678 71.014179 4.044810 0.000000 0.000000 0.000000 14.235925 -5.029570 27.025693 -6.122955 -7.862931 0.933062 -5.260148 -19.841965 52.472070 0.000000 0.000000 0.000000
-37.653862 56.944578 301.274333 -2.082429 -0.771294 -29.923546 0.185262 0.099035 29.861645 -0.025428 -0.458744 -0.069296 2.012582 -1.113936 -0.088508 0.000000 0.000000 0.000000 2.457096 -1.188558 0.615656 -12.057368 11.837334 1.022277 3.555366 -6.944889 -1.705884 -2.097313 -14.417485 1.170264 0.000000 0.000000 0.000000 0.000000 0.000000 0.000000 3.480710 -3.769819 -0.126705 -15.935613 14.148698 -0.100403 -2.000530 16.872090 19.358121 -8.924260 -22.290334 -19.172579 0.000000 0.000000 0.000000 0.000000 0.000000 0.000000 -16.045449 4.941755 32.399435 30.979059 -48.914174 7.937837 3.940075 73.247552 3.567331 0.000000 0.000000 0.000000 14.953760 -3.591197 28.333751 -7.031247 -7.350013 1.410556 -5.833416 -17.615261 51.358921 0.000000 0.000000 0.000000
